<?xml version="1.0" encoding="UTF-8" standalone="no"?>
<!DOCTYPE svg PUBLIC "-//W3C//DTD SVG 1.1//EN"
 "http://www.w3.org/Graphics/SVG/1.1/DTD/svg11.dtd">
<!-- Generated by graphviz version 2.46.0 (20210119.1425)
 -->
<!-- Title: dependencies Pages: 1 -->
<svg width="1485pt" height="284pt"
 viewBox="0.00 0.00 1485.00 284.00" xmlns="http://www.w3.org/2000/svg" xmlns:xlink="http://www.w3.org/1999/xlink">
<g id="graph0" class="graph" transform="scale(1 1) rotate(0) translate(4 280)">
<title>dependencies</title>
<polygon fill="white" stroke="transparent" points="-4,4 -4,-280 1481,-280 1481,4 -4,4"/>
<text text-anchor="start" x="717.51" y="-42.4" font-family="sans-serif" font-weight="bold" font-size="14.00">Legend</text>
<polygon fill="#ffffb3" stroke="transparent" points="504.5,-10 504.5,-30 524.5,-30 524.5,-10 504.5,-10"/>
<text text-anchor="start" x="528.13" y="-15.4" font-family="sans-serif" font-size="14.00"> &#160;Declarations</text>
<polygon fill="#8dd3c7" stroke="transparent" points="617.5,-10 617.5,-30 637.5,-30 637.5,-10 617.5,-10"/>
<text text-anchor="start" x="641.23" y="-15.4" font-family="sans-serif" font-size="14.00"> &#160;Module</text>
<polygon fill="#80b1d3" stroke="transparent" points="703.5,-10 703.5,-30 723.5,-30 723.5,-10 703.5,-10"/>
<text text-anchor="start" x="727.28" y="-15.4" font-family="sans-serif" font-size="14.00"> &#160;Bootstrap</text>
<polygon fill="#fdb462" stroke="transparent" points="800.5,-10 800.5,-30 820.5,-30 820.5,-10 800.5,-10"/>
<text text-anchor="start" x="824.17" y="-15.4" font-family="sans-serif" font-size="14.00"> &#160;Providers</text>
<polygon fill="#fb8072" stroke="transparent" points="896.5,-10 896.5,-30 916.5,-30 916.5,-10 896.5,-10"/>
<text text-anchor="start" x="920.23" y="-15.4" font-family="sans-serif" font-size="14.00"> &#160;Exports</text>
<g id="clust1" class="cluster">
<title>cluster_AppModule</title>
<polygon fill="none" stroke="black" stroke-dasharray="1,5" points="8,-70 8,-268 1469,-268 1469,-70 8,-70"/>
</g>
<g id="clust2" class="cluster">
<title>cluster_AppModule_declarations</title>
<polygon fill="none" stroke="black" points="168,-78 168,-130 1461,-130 1461,-78 168,-78"/>
</g>
<g id="clust12" class="cluster">
<title>cluster_AppModule_imports</title>
<polygon fill="none" stroke="black" points="16,-78 16,-130 160,-130 160,-78 16,-78"/>
</g>
<g id="clust14" class="cluster">
<title>cluster_AppModule_bootstrap</title>
<polygon fill="none" stroke="black" points="647,-208 647,-260 771,-260 771,-208 647,-208"/>
</g>
<!-- AlongamentoComponent -->
<g id="node1" class="node">
<title>AlongamentoComponent</title>
<polygon fill="#ffffb3" stroke="black" points="1452.54,-122 1295.46,-122 1295.46,-86 1452.54,-86 1452.54,-122"/>
<text text-anchor="middle" x="1374" y="-99.8" font-family="Times,serif" font-size="14.00">AlongamentoComponent</text>
</g>
<!-- AppModule -->
<g id="node10" class="node">
<title>AppModule</title>
<polygon fill="#8dd3c7" stroke="black" points="750.66,-187 747.66,-191 726.66,-191 723.66,-187 667.34,-187 667.34,-151 750.66,-151 750.66,-187"/>
<text text-anchor="middle" x="709" y="-164.8" font-family="Times,serif" font-size="14.00">AppModule</text>
</g>
<!-- AlongamentoComponent&#45;&gt;AppModule -->
<g id="edge1" class="edge">
<title>AlongamentoComponent&#45;&gt;AppModule</title>
<path fill="none" stroke="black" d="M1374,-122.01C1374,-144.49 1374,-180 1374,-180 1374,-180 760.85,-180 760.85,-180"/>
<polygon fill="black" stroke="black" points="760.85,-176.5 750.85,-180 760.85,-183.5 760.85,-176.5"/>
</g>
<!-- AppComponent -->
<g id="node2" class="node">
<title>AppComponent</title>
<polygon fill="#ffffb3" stroke="black" points="1277.94,-122 1172.06,-122 1172.06,-86 1277.94,-86 1277.94,-122"/>
<text text-anchor="middle" x="1225" y="-99.8" font-family="Times,serif" font-size="14.00">AppComponent</text>
</g>
<!-- AppComponent&#45;&gt;AppModule -->
<g id="edge2" class="edge">
<title>AppComponent&#45;&gt;AppModule</title>
<path fill="none" stroke="black" d="M1225,-122.13C1225,-142.57 1225,-173 1225,-173 1225,-173 760.79,-173 760.79,-173"/>
<polygon fill="black" stroke="black" points="760.79,-169.5 750.79,-173 760.79,-176.5 760.79,-169.5"/>
</g>
<!-- CertificacoesComponent -->
<g id="node3" class="node">
<title>CertificacoesComponent</title>
<polygon fill="#ffffb3" stroke="black" points="1154.68,-122 999.32,-122 999.32,-86 1154.68,-86 1154.68,-122"/>
<text text-anchor="middle" x="1077" y="-99.8" font-family="Times,serif" font-size="14.00">CertificacoesComponent</text>
</g>
<!-- CertificacoesComponent&#45;&gt;AppModule -->
<g id="edge3" class="edge">
<title>CertificacoesComponent&#45;&gt;AppModule</title>
<path fill="none" stroke="black" d="M1077,-122.27C1077,-140.56 1077,-166 1077,-166 1077,-166 760.86,-166 760.86,-166"/>
<polygon fill="black" stroke="black" points="760.86,-162.5 750.86,-166 760.86,-169.5 760.86,-162.5"/>
</g>
<!-- ContatoComponent -->
<g id="node4" class="node">
<title>ContatoComponent</title>
<polygon fill="#ffffb3" stroke="black" points="981.67,-122 856.33,-122 856.33,-86 981.67,-86 981.67,-122"/>
<text text-anchor="middle" x="919" y="-99.8" font-family="Times,serif" font-size="14.00">ContatoComponent</text>
</g>
<!-- ContatoComponent&#45;&gt;AppModule -->
<g id="edge4" class="edge">
<title>ContatoComponent&#45;&gt;AppModule</title>
<path fill="none" stroke="black" d="M919,-122.01C919,-138.05 919,-159 919,-159 919,-159 760.74,-159 760.74,-159"/>
<polygon fill="black" stroke="black" points="760.74,-155.5 750.74,-159 760.74,-162.5 760.74,-155.5"/>
</g>
<!-- DesignComponent -->
<g id="node5" class="node">
<title>DesignComponent</title>
<polygon fill="#ffffb3" stroke="black" points="838.49,-122 717.51,-122 717.51,-86 838.49,-86 838.49,-122"/>
<text text-anchor="middle" x="778" y="-99.8" font-family="Times,serif" font-size="14.00">DesignComponent</text>
</g>
<!-- DesignComponent&#45;&gt;AppModule -->
<g id="edge5" class="edge">
<title>DesignComponent&#45;&gt;AppModule</title>
<path fill="none" stroke="black" d="M734.17,-122.11C734.17,-122.11 734.17,-140.99 734.17,-140.99"/>
<polygon fill="black" stroke="black" points="730.67,-140.99 734.17,-150.99 737.67,-140.99 730.67,-140.99"/>
</g>
<!-- FooterComponent -->
<g id="node6" class="node">
<title>FooterComponent</title>
<polygon fill="#ffffb3" stroke="black" points="699.88,-122 582.12,-122 582.12,-86 699.88,-86 699.88,-122"/>
<text text-anchor="middle" x="641" y="-99.8" font-family="Times,serif" font-size="14.00">FooterComponent</text>
</g>
<!-- FooterComponent&#45;&gt;AppModule -->
<g id="edge6" class="edge">
<title>FooterComponent&#45;&gt;AppModule</title>
<path fill="none" stroke="black" d="M683.56,-122.11C683.56,-122.11 683.56,-140.99 683.56,-140.99"/>
<polygon fill="black" stroke="black" points="680.06,-140.99 683.56,-150.99 687.06,-140.99 680.06,-140.99"/>
</g>
<!-- HomeComponent -->
<g id="node7" class="node">
<title>HomeComponent</title>
<polygon fill="#ffffb3" stroke="black" points="563.55,-122 448.45,-122 448.45,-86 563.55,-86 563.55,-122"/>
<text text-anchor="middle" x="506" y="-99.8" font-family="Times,serif" font-size="14.00">HomeComponent</text>
</g>
<!-- HomeComponent&#45;&gt;AppModule -->
<g id="edge7" class="edge">
<title>HomeComponent&#45;&gt;AppModule</title>
<path fill="none" stroke="black" d="M506,-122.01C506,-138.05 506,-159 506,-159 506,-159 656.94,-159 656.94,-159"/>
<polygon fill="black" stroke="black" points="656.94,-162.5 666.94,-159 656.94,-155.5 656.94,-162.5"/>
</g>
<!-- NavbarComponent -->
<g id="node8" class="node">
<title>NavbarComponent</title>
<polygon fill="#ffffb3" stroke="black" points="430.03,-122 307.97,-122 307.97,-86 430.03,-86 430.03,-122"/>
<text text-anchor="middle" x="369" y="-99.8" font-family="Times,serif" font-size="14.00">NavbarComponent</text>
</g>
<!-- NavbarComponent&#45;&gt;AppModule -->
<g id="edge8" class="edge">
<title>NavbarComponent&#45;&gt;AppModule</title>
<path fill="none" stroke="black" d="M369,-122.27C369,-140.56 369,-166 369,-166 369,-166 657.31,-166 657.31,-166"/>
<polygon fill="black" stroke="black" points="657.31,-169.5 667.31,-166 657.31,-162.5 657.31,-169.5"/>
</g>
<!-- SobreComponent -->
<g id="node9" class="node">
<title>SobreComponent</title>
<polygon fill="#ffffb3" stroke="black" points="289.99,-122 176.01,-122 176.01,-86 289.99,-86 289.99,-122"/>
<text text-anchor="middle" x="233" y="-99.8" font-family="Times,serif" font-size="14.00">SobreComponent</text>
</g>
<!-- SobreComponent&#45;&gt;AppModule -->
<g id="edge9" class="edge">
<title>SobreComponent&#45;&gt;AppModule</title>
<path fill="none" stroke="black" d="M233,-122.13C233,-142.57 233,-173 233,-173 233,-173 657.18,-173 657.18,-173"/>
<polygon fill="black" stroke="black" points="657.18,-176.5 667.18,-173 657.18,-169.5 657.18,-176.5"/>
</g>
<!-- AppComponent  -->
<g id="node12" class="node">
<title>AppComponent </title>
<polygon fill="#80b1d3" stroke="black" points="763.44,-252 654.56,-252 654.56,-216 763.44,-216 763.44,-252"/>
<text text-anchor="middle" x="709" y="-229.8" font-family="Times,serif" font-size="14.00">AppComponent </text>
</g>
<!-- AppModule&#45;&gt;AppComponent  -->
<g id="edge11" class="edge">
<title>AppModule&#45;&gt;AppComponent </title>
<path fill="none" stroke="black" stroke-dasharray="1,5" d="M709,-187.11C709,-187.11 709,-205.99 709,-205.99"/>
<polygon fill="black" stroke="black" points="705.5,-205.99 709,-215.99 712.5,-205.99 705.5,-205.99"/>
</g>
<!-- AppRoutingModule -->
<g id="node11" class="node">
<title>AppRoutingModule</title>
<polygon fill="#8dd3c7" stroke="black" points="152.27,-122 149.27,-126 128.27,-126 125.27,-122 23.73,-122 23.73,-86 152.27,-86 152.27,-122"/>
<text text-anchor="middle" x="88" y="-99.8" font-family="Times,serif" font-size="14.00">AppRoutingModule</text>
</g>
<!-- AppRoutingModule&#45;&gt;AppModule -->
<g id="edge10" class="edge">
<title>AppRoutingModule&#45;&gt;AppModule</title>
<path fill="none" stroke="black" d="M88,-122.01C88,-144.49 88,-180 88,-180 88,-180 657.29,-180 657.29,-180"/>
<polygon fill="black" stroke="black" points="657.29,-183.5 667.29,-180 657.29,-176.5 657.29,-183.5"/>
</g>
</g>
</svg>
