<?xml version="1.0" encoding="UTF-8" standalone="no"?>
<!DOCTYPE svg PUBLIC "-//W3C//DTD SVG 1.1//EN"
 "http://www.w3.org/Graphics/SVG/1.1/DTD/svg11.dtd">
<!-- Generated by graphviz version 2.46.0 (20210119.1425)
 -->
<!-- Title: dependencies Pages: 1 -->
<svg width="1485pt" height="284pt"
 viewBox="0.00 0.00 1485.00 284.00" xmlns="http://www.w3.org/2000/svg" xmlns:xlink="http://www.w3.org/1999/xlink">
<g id="graph0" class="graph" transform="scale(1 1) rotate(0) translate(4 280)">
<title>dependencies</title>
<polygon fill="white" stroke="transparent" points="-4,4 -4,-280 1481,-280 1481,4 -4,4"/>
<text text-anchor="start" x="717.51" y="-42.4" font-family="sans-serif" font-weight="bold" font-size="14.00">Legend</text>
<polygon fill="#ffffb3" stroke="transparent" points="504.5,-10 504.5,-30 524.5,-30 524.5,-10 504.5,-10"/>
<text text-anchor="start" x="528.13" y="-15.4" font-family="sans-serif" font-size="14.00"> &#160;Declarations</text>
<polygon fill="#8dd3c7" stroke="transparent" points="617.5,-10 617.5,-30 637.5,-30 637.5,-10 617.5,-10"/>
<text text-anchor="start" x="641.23" y="-15.4" font-family="sans-serif" font-size="14.00"> &#160;Module</text>
<polygon fill="#80b1d3" stroke="transparent" points="703.5,-10 703.5,-30 723.5,-30 723.5,-10 703.5,-10"/>
<text text-anchor="start" x="727.28" y="-15.4" font-family="sans-serif" font-size="14.00"> &#160;Bootstrap</text>
<polygon fill="#fdb462" stroke="transparent" points="800.5,-10 800.5,-30 820.5,-30 820.5,-10 800.5,-10"/>
<text text-anchor="start" x="824.17" y="-15.4" font-family="sans-serif" font-size="14.00"> &#160;Providers</text>
<polygon fill="#fb8072" stroke="transparent" points="896.5,-10 896.5,-30 916.5,-30 916.5,-10 896.5,-10"/>
<text text-anchor="start" x="920.23" y="-15.4" font-family="sans-serif" font-size="14.00"> &#160;Exports</text>
<g id="clust1" class="cluster">
<title>cluster_AppModule</title>
<polygon fill="none" stroke="black" stroke-dasharray="1,5" points="8,-70 8,-268 1469,-268 1469,-70 8,-70"/>
</g>
<g id="clust12" class="cluster">
<title>cluster_AppModule_imports</title>
<polygon fill="none" stroke="black" points="1317,-78 1317,-130 1461,-130 1461,-78 1317,-78"/>
</g>
<g id="clust14" class="cluster">
<title>cluster_AppModule_bootstrap</title>
<polygon fill="none" stroke="black" points="634,-208 634,-260 758,-260 758,-208 634,-208"/>
</g>
<g id="clust2" class="cluster">
<title>cluster_AppModule_declarations</title>
<polygon fill="none" stroke="black" points="16,-78 16,-130 1309,-130 1309,-78 16,-78"/>
</g>
<!-- AlongamentoComponent -->
<g id="node1" class="node">
<title>AlongamentoComponent</title>
<polygon fill="#ffffb3" stroke="black" points="1300.54,-122 1143.46,-122 1143.46,-86 1300.54,-86 1300.54,-122"/>
<text text-anchor="middle" x="1222" y="-99.8" font-family="Times,serif" font-size="14.00">AlongamentoComponent</text>
</g>
<!-- AppModule -->
<g id="node10" class="node">
<title>AppModule</title>
<polygon fill="#8dd3c7" stroke="black" points="737.66,-187 734.66,-191 713.66,-191 710.66,-187 654.34,-187 654.34,-151 737.66,-151 737.66,-187"/>
<text text-anchor="middle" x="696" y="-164.8" font-family="Times,serif" font-size="14.00">AppModule</text>
</g>
<!-- AlongamentoComponent&#45;&gt;AppModule -->
<g id="edge1" class="edge">
<title>AlongamentoComponent&#45;&gt;AppModule</title>
<path fill="none" stroke="black" d="M1222,-122.13C1222,-142.57 1222,-173 1222,-173 1222,-173 747.71,-173 747.71,-173"/>
<polygon fill="black" stroke="black" points="747.71,-169.5 737.71,-173 747.71,-176.5 747.71,-169.5"/>
</g>
<!-- AppComponent -->
<g id="node2" class="node">
<title>AppComponent</title>
<polygon fill="#ffffb3" stroke="black" points="1125.94,-122 1020.06,-122 1020.06,-86 1125.94,-86 1125.94,-122"/>
<text text-anchor="middle" x="1073" y="-99.8" font-family="Times,serif" font-size="14.00">AppComponent</text>
</g>
<!-- AppComponent&#45;&gt;AppModule -->
<g id="edge2" class="edge">
<title>AppComponent&#45;&gt;AppModule</title>
<path fill="none" stroke="black" d="M1073,-122.27C1073,-140.56 1073,-166 1073,-166 1073,-166 747.79,-166 747.79,-166"/>
<polygon fill="black" stroke="black" points="747.79,-162.5 737.79,-166 747.79,-169.5 747.79,-162.5"/>
</g>
<!-- CertificacoesComponent -->
<g id="node3" class="node">
<title>CertificacoesComponent</title>
<polygon fill="#ffffb3" stroke="black" points="1002.68,-122 847.32,-122 847.32,-86 1002.68,-86 1002.68,-122"/>
<text text-anchor="middle" x="925" y="-99.8" font-family="Times,serif" font-size="14.00">CertificacoesComponent</text>
</g>
<!-- CertificacoesComponent&#45;&gt;AppModule -->
<g id="edge3" class="edge">
<title>CertificacoesComponent&#45;&gt;AppModule</title>
<path fill="none" stroke="black" d="M925,-122.01C925,-138.05 925,-159 925,-159 925,-159 747.74,-159 747.74,-159"/>
<polygon fill="black" stroke="black" points="747.74,-155.5 737.74,-159 747.74,-162.5 747.74,-155.5"/>
</g>
<!-- ContatoComponent -->
<g id="node4" class="node">
<title>ContatoComponent</title>
<polygon fill="#ffffb3" stroke="black" points="829.67,-122 704.33,-122 704.33,-86 829.67,-86 829.67,-122"/>
<text text-anchor="middle" x="767" y="-99.8" font-family="Times,serif" font-size="14.00">ContatoComponent</text>
</g>
<!-- ContatoComponent&#45;&gt;AppModule -->
<g id="edge4" class="edge">
<title>ContatoComponent&#45;&gt;AppModule</title>
<path fill="none" stroke="black" d="M721,-122.11C721,-122.11 721,-140.99 721,-140.99"/>
<polygon fill="black" stroke="black" points="717.5,-140.99 721,-150.99 724.5,-140.99 717.5,-140.99"/>
</g>
<!-- DesignComponent -->
<g id="node5" class="node">
<title>DesignComponent</title>
<polygon fill="#ffffb3" stroke="black" points="686.49,-122 565.51,-122 565.51,-86 686.49,-86 686.49,-122"/>
<text text-anchor="middle" x="626" y="-99.8" font-family="Times,serif" font-size="14.00">DesignComponent</text>
</g>
<!-- DesignComponent&#45;&gt;AppModule -->
<g id="edge5" class="edge">
<title>DesignComponent&#45;&gt;AppModule</title>
<path fill="none" stroke="black" d="M670.33,-122.11C670.33,-122.11 670.33,-140.99 670.33,-140.99"/>
<polygon fill="black" stroke="black" points="666.83,-140.99 670.33,-150.99 673.83,-140.99 666.83,-140.99"/>
</g>
<!-- FooterComponent -->
<g id="node6" class="node">
<title>FooterComponent</title>
<polygon fill="#ffffb3" stroke="black" points="547.88,-122 430.12,-122 430.12,-86 547.88,-86 547.88,-122"/>
<text text-anchor="middle" x="489" y="-99.8" font-family="Times,serif" font-size="14.00">FooterComponent</text>
</g>
<!-- FooterComponent&#45;&gt;AppModule -->
<g id="edge6" class="edge">
<title>FooterComponent&#45;&gt;AppModule</title>
<path fill="none" stroke="black" d="M489,-122.01C489,-138.05 489,-159 489,-159 489,-159 644.11,-159 644.11,-159"/>
<polygon fill="black" stroke="black" points="644.11,-162.5 654.11,-159 644.11,-155.5 644.11,-162.5"/>
</g>
<!-- HomeComponent -->
<g id="node7" class="node">
<title>HomeComponent</title>
<polygon fill="#ffffb3" stroke="black" points="411.55,-122 296.45,-122 296.45,-86 411.55,-86 411.55,-122"/>
<text text-anchor="middle" x="354" y="-99.8" font-family="Times,serif" font-size="14.00">HomeComponent</text>
</g>
<!-- HomeComponent&#45;&gt;AppModule -->
<g id="edge7" class="edge">
<title>HomeComponent&#45;&gt;AppModule</title>
<path fill="none" stroke="black" d="M354,-122.27C354,-140.56 354,-166 354,-166 354,-166 644.06,-166 644.06,-166"/>
<polygon fill="black" stroke="black" points="644.06,-169.5 654.06,-166 644.06,-162.5 644.06,-169.5"/>
</g>
<!-- NavbarComponent -->
<g id="node8" class="node">
<title>NavbarComponent</title>
<polygon fill="#ffffb3" stroke="black" points="278.03,-122 155.97,-122 155.97,-86 278.03,-86 278.03,-122"/>
<text text-anchor="middle" x="217" y="-99.8" font-family="Times,serif" font-size="14.00">NavbarComponent</text>
</g>
<!-- NavbarComponent&#45;&gt;AppModule -->
<g id="edge8" class="edge">
<title>NavbarComponent&#45;&gt;AppModule</title>
<path fill="none" stroke="black" d="M217,-122.13C217,-142.57 217,-173 217,-173 217,-173 644.33,-173 644.33,-173"/>
<polygon fill="black" stroke="black" points="644.33,-176.5 654.33,-173 644.33,-169.5 644.33,-176.5"/>
</g>
<!-- SobreComponent -->
<g id="node9" class="node">
<title>SobreComponent</title>
<polygon fill="#ffffb3" stroke="black" points="137.99,-122 24.01,-122 24.01,-86 137.99,-86 137.99,-122"/>
<text text-anchor="middle" x="81" y="-99.8" font-family="Times,serif" font-size="14.00">SobreComponent</text>
</g>
<!-- SobreComponent&#45;&gt;AppModule -->
<g id="edge9" class="edge">
<title>SobreComponent&#45;&gt;AppModule</title>
<path fill="none" stroke="black" d="M81,-122.01C81,-144.49 81,-180 81,-180 81,-180 644.21,-180 644.21,-180"/>
<polygon fill="black" stroke="black" points="644.21,-183.5 654.21,-180 644.21,-176.5 644.21,-183.5"/>
</g>
<!-- AppComponent  -->
<g id="node12" class="node">
<title>AppComponent </title>
<polygon fill="#80b1d3" stroke="black" points="750.44,-252 641.56,-252 641.56,-216 750.44,-216 750.44,-252"/>
<text text-anchor="middle" x="696" y="-229.8" font-family="Times,serif" font-size="14.00">AppComponent </text>
</g>
<!-- AppModule&#45;&gt;AppComponent  -->
<g id="edge11" class="edge">
<title>AppModule&#45;&gt;AppComponent </title>
<path fill="none" stroke="black" stroke-dasharray="1,5" d="M696,-187.11C696,-187.11 696,-205.99 696,-205.99"/>
<polygon fill="black" stroke="black" points="692.5,-205.99 696,-215.99 699.5,-205.99 692.5,-205.99"/>
</g>
<!-- AppRoutingModule -->
<g id="node11" class="node">
<title>AppRoutingModule</title>
<polygon fill="#8dd3c7" stroke="black" points="1453.27,-122 1450.27,-126 1429.27,-126 1426.27,-122 1324.73,-122 1324.73,-86 1453.27,-86 1453.27,-122"/>
<text text-anchor="middle" x="1389" y="-99.8" font-family="Times,serif" font-size="14.00">AppRoutingModule</text>
</g>
<!-- AppRoutingModule&#45;&gt;AppModule -->
<g id="edge10" class="edge">
<title>AppRoutingModule&#45;&gt;AppModule</title>
<path fill="none" stroke="black" d="M1389,-122.01C1389,-144.49 1389,-180 1389,-180 1389,-180 747.79,-180 747.79,-180"/>
<polygon fill="black" stroke="black" points="747.79,-176.5 737.79,-180 747.79,-183.5 747.79,-176.5"/>
</g>
</g>
</svg>
